<svg xmlns="http://www.w3.org/2000/svg" viewBox="0 0 128 128" fill="none">
  <defs>
    <linearGradient id="rd-bg" x1="0" y1="0" x2="128" y2="128" gradientUnits="userSpaceOnUse">
      <stop offset="0" stop-color="#1e293b"/>
      <stop offset="1" stop-color="#3f1d3a"/>
    </linearGradient>
    <linearGradient id="rd-mono" x1="20" y1="36" x2="100" y2="92" gradientUnits="userSpaceOnUse">
      <stop offset="0" stop-color="#fb7185"/>
      <stop offset="0.5" stop-color="#fcd34d"/>
      <stop offset="1" stop-color="#67e8f9"/>
    </linearGradient>
  </defs>
  <rect x="4" y="4" width="120" height="120" rx="24" fill="url(#rd-bg)" stroke="rgba(255,255,255,0.12)" stroke-width="1.5"/>
  <path
    d="M36 90V40h22c8 0 14.5 6 14.5 14.5 0 6-3.4 11-8.6 13.2L75 90H62.6L54.5 70.5H48V90H36zm12-30h9.5c3 0 5-2 5-5s-2-5-5-5H48v10z"
    fill="url(#rd-mono)"
  />
  <g fill="none" stroke="rgba(253,164,175,0.7)" stroke-width="2.4" stroke-linecap="round">
    <circle cx="86" cy="50" r="3.5"/>
    <circle cx="96" cy="42" r="3.5" fill="rgba(252,211,77,0.85)"/>
    <circle cx="106" cy="50" r="3.5"/>
  </g>
  <path d="M82 100q14 8 28 0" stroke="rgba(252,211,77,0.55)" stroke-width="3" stroke-linecap="round" fill="none"/>
</svg>
