<svg xmlns="http://www.w3.org/2000/svg" viewBox="0 0 128 128" fill="none">
  <defs>
    <linearGradient id="ec-bg" x1="0" y1="0" x2="128" y2="128" gradientUnits="userSpaceOnUse">
      <stop offset="0" stop-color="#0f172a"/>
      <stop offset="1" stop-color="#1e1b4b"/>
    </linearGradient>
    <linearGradient id="ec-bag" x1="32" y1="36" x2="96" y2="100" gradientUnits="userSpaceOnUse">
      <stop offset="0" stop-color="#a5b4fc"/>
      <stop offset="0.5" stop-color="#67e8f9"/>
      <stop offset="1" stop-color="#fcd34d"/>
    </linearGradient>
    <radialGradient id="ec-glow" cx="64" cy="56" r="48" gradientUnits="userSpaceOnUse">
      <stop offset="0" stop-color="rgba(99,102,241,0.55)"/>
      <stop offset="1" stop-color="rgba(99,102,241,0)"/>
    </radialGradient>
  </defs>
  <rect x="4" y="4" width="120" height="120" rx="24" fill="url(#ec-bg)" stroke="rgba(255,255,255,0.12)" stroke-width="1.5"/>
  <circle cx="64" cy="56" r="40" fill="url(#ec-glow)"/>
  <path d="M40 50h48l-4 46a8 8 0 0 1-8 7.2H52a8 8 0 0 1-8-7.2z" fill="url(#ec-bag)" opacity="0.95"/>
  <path d="M50 50v-8a14 14 0 0 1 28 0v8" stroke="rgba(15,23,42,0.85)" stroke-width="5" stroke-linecap="round" fill="none"/>
  <g fill="rgba(15,23,42,0.8)">
    <circle cx="55" cy="68" r="3"/>
    <circle cx="73" cy="68" r="3"/>
  </g>
  <path d="M52 78q12 12 24 0" stroke="rgba(15,23,42,0.85)" stroke-width="4" stroke-linecap="round" fill="none"/>
</svg>
