<svg xmlns="http://www.w3.org/2000/svg" viewBox="0 0 128 128" fill="none">
  <defs>
    <linearGradient id="ssg-bg" x1="0" y1="0" x2="128" y2="128" gradientUnits="userSpaceOnUse">
      <stop offset="0" stop-color="#1e293b"/>
      <stop offset="1" stop-color="#0f172a"/>
    </linearGradient>
    <linearGradient id="ssg-mono" x1="20" y1="20" x2="108" y2="108" gradientUnits="userSpaceOnUse">
      <stop offset="0" stop-color="#f59e0b"/>
      <stop offset="0.55" stop-color="#fbbf24"/>
      <stop offset="1" stop-color="#22d3ee"/>
    </linearGradient>
  </defs>
  <rect x="4" y="4" width="120" height="120" rx="24" fill="url(#ssg-bg)" stroke="rgba(255,255,255,0.12)" stroke-width="1.5"/>
  <g fill="url(#ssg-mono)">
    <path d="M44.8 38.2c-7.1 0-12.6 4.6-12.6 11.5 0 6.5 4.2 9.4 11.4 11.2l3.6.9c4.7 1.2 6.4 2.6 6.4 5.4 0 3.5-2.9 5.8-7.5 5.8-5 0-8.7-2.5-9-7.4h-6.4c.3 8.4 6.2 13 15.2 13 8.6 0 14.4-4.6 14.4-11.8 0-6.8-4.4-9.8-11.3-11.5l-3.7-.9c-4.6-1.1-6.4-2.6-6.4-5.2 0-3.2 2.9-5.4 7-5.4 4.4 0 7.4 2.3 7.7 6.4h6.3c-.3-7.5-5.8-12-13.9-12z"/>
    <path d="M81.4 38.2c-7.1 0-12.6 4.6-12.6 11.5 0 6.5 4.2 9.4 11.4 11.2l3.6.9c4.7 1.2 6.4 2.6 6.4 5.4 0 3.5-2.9 5.8-7.5 5.8-5 0-8.7-2.5-9-7.4h-6.4c.3 8.4 6.2 13 15.2 13 8.6 0 14.4-4.6 14.4-11.8 0-6.8-4.4-9.8-11.3-11.5l-3.7-.9c-4.6-1.1-6.4-2.6-6.4-5.2 0-3.2 2.9-5.4 7-5.4 4.4 0 7.4 2.3 7.7 6.4h6.3c-.3-7.5-5.8-12-13.9-12z"/>
  </g>
  <g stroke="rgba(245,158,11,0.55)" stroke-width="2" stroke-linecap="round">
    <path d="M30 92h68"/>
    <path d="M38 100h52"/>
  </g>
</svg>
